<svg xmlns="http://www.w3.org/2000/svg" aria-hidden="true"
    style="position:absolute;width:0;height:0;overflow:hidden">
    <defs>
        <symbol width="40" height="40" id="icon-twitter" viewBox="0 0 32 32">
            <path fill="#4d5ae5"
                d="M32 16v.021a15.9 15.9 0 0 1-4.686 11.293A15.9 15.9 0 0 1 16.021 32h-.022H16h-.021a15.9 15.9 0 0 1-11.293-4.686A15.9 15.9 0 0 1 0 16.021v-.022V16v-.02A15.9 15.9 0 0 1 4.686 4.687 15.9 15.9 0 0 1 15.979.001H16h-.001.021a15.9 15.9 0 0 1 11.293 4.686 15.9 15.9 0 0 1 4.686 11.293v.022-.001z"
                style="fill:var(--color1, #4d5ae5)" />
            <path fill="#f4f4fd"
                d="M22.4 12.031c-.44.197-.95.343-1.485.412l-.027.003a2.62 2.62 0 0 0 1.149-1.432l.005-.018a5.181 5.181 0 0 1-1.63.63l-.034.006a2.624 2.624 0 0 0-4.539 1.794v.001c0 .208.018.408.061.598a7.42 7.42 0 0 1-5.398-2.731l-.011-.014a2.626 2.626 0 0 0 .797 3.501l.009.006a2.576 2.576 0 0 1-1.199-.33l.013.007v.029a2.637 2.637 0 0 0 2.085 2.575l.017.003c-.2.055-.43.086-.668.086h-.022.001-.041c-.161 0-.319-.016-.471-.048l.015.003a2.655 2.655 0 0 0 2.449 1.828h.003a5.238 5.238 0 0 1-3.248 1.119h-.006c-.215 0-.422-.01-.628-.036a7.32 7.32 0 0 0 4.002 1.178h.025-.001c4.829 0 7.469-4 7.469-7.467a6.24 6.24 0 0 0-.01-.339c.52-.375.956-.827 1.303-1.344l.012-.019z"
                style="fill:var(--color2, #f4f4fd)" />
        </symbol>
        <symbol width="40" height="40" id="icon-facebook" viewBox="0 0 32 32">
            <path fill="#4d5ae5"
                d="M32 16v.021a15.9 15.9 0 0 1-4.686 11.293A15.9 15.9 0 0 1 16.021 32h-.022H16h-.021a15.9 15.9 0 0 1-11.293-4.686A15.9 15.9 0 0 1 0 16.021v-.022V16v-.02A15.9 15.9 0 0 1 4.686 4.687 15.9 15.9 0 0 1 15.979.001H16h-.001.021a15.9 15.9 0 0 1 11.293 4.686 15.9 15.9 0 0 1 4.686 11.293v.022-.001z"
                style="fill:var(--color1, #4d5ae5)" />
            <path fill="#f4f4fd"
                d="M18.132 11.725H19.3V9.691a14.526 14.526 0 0 0-1.651-.091h-.054.003c-1.685 0-2.838 1.06-2.838 3.008V14.4h-1.859v2.275h1.859V22.4h2.279v-5.724h1.784l.283-2.276h-2.068v-1.567c.001-.658.178-1.108 1.094-1.108z"
                style="fill:var(--color2, #f4f4fd)" />
        </symbol>
        <symbol width="40" height="40" id="icon-linkedin" viewBox="0 0 32 32">
            <path fill="#4d5ae5"
                d="M32 16v.021a15.9 15.9 0 0 1-4.686 11.293A15.9 15.9 0 0 1 16.021 32h-.022H16h-.021a15.9 15.9 0 0 1-11.293-4.686A15.9 15.9 0 0 1 0 16.021v-.022V16v-.02A15.9 15.9 0 0 1 4.686 4.687 15.9 15.9 0 0 1 15.979.001H16h-.001.021a15.9 15.9 0 0 1 11.293 4.686 15.9 15.9 0 0 1 4.686 11.293v.022-.001z"
                style="fill:var(--color1, #4d5ae5)" />
            <path fill="#f4f4fd"
                d="M22.397 22.4h.003v-4.696c0-2.296-.494-4.066-3.179-4.066-1.29 0-2.157.709-2.51 1.38h-.038v-1.166h-2.545v8.547h2.651v-4.232c0-1.114.211-2.19 1.59-2.19 1.36 0 1.38 1.271 1.38 2.262v4.16h2.648zM9.811 13.854h2.654V22.4H9.811v-8.546zM11.137 9.6c-.848 0-1.536.688-1.536 1.537s.688 1.552 1.536 1.552c.849 0 1.538-.704 1.538-1.552S11.985 9.6 11.137 9.6z"
                style="fill:var(--color2, #f4f4fd)" />
        </symbol>
        <symbol width="40" height="40" id="icon-instagrame" viewBox="0 0 32 32">
            <path fill="#4d5ae5"
                d="M32 16v.021a15.9 15.9 0 0 1-4.686 11.293A15.9 15.9 0 0 1 16.021 32h-.022H16h-.021a15.9 15.9 0 0 1-11.293-4.686A15.9 15.9 0 0 1 0 16.021v-.022V16v-.02A15.9 15.9 0 0 1 4.686 4.687 15.9 15.9 0 0 1 15.979.001H16h-.001.021a15.9 15.9 0 0 1 11.293 4.686 15.9 15.9 0 0 1 4.686 11.293v.022-.001z"
                style="fill:var(--color1, #4d5ae5)" />
            <path fill="#f4f4fd"
                d="M22.387 13.363c-.03-.68-.14-1.148-.298-1.553a3.125 3.125 0 0 0-.739-1.135l-.001-.001a3.157 3.157 0 0 0-1.111-.729l-.022-.007c-.408-.158-.872-.268-1.552-.298-.686-.032-.904-.04-2.641-.04-1.738 0-1.956.008-2.638.038-.68.03-1.147.14-1.552.298a3.125 3.125 0 0 0-1.135.739l-.001.001c-.317.312-.568.69-.73 1.111l-.007.022c-.158.408-.267.872-.298 1.552-.032.686-.04.904-.04 2.641 0 1.738.008 1.956.038 2.638.03.68.14 1.148.298 1.553.162.43.415.815.74 1.135.32.325.708.578 1.133.738.408.158.872.268 1.553.298.682.03.9.038 2.638.038s1.955-.008 2.638-.038c.68-.03 1.148-.14 1.553-.298a3.29 3.29 0 0 0 1.865-1.851l.008-.022c.158-.408.268-.872.298-1.553.03-.682.038-.9.038-2.638s-.002-1.955-.032-2.638zm-1.152 5.226c-.028.626-.133.963-.221 1.188-.22.56-.655.995-1.201 1.211l-.014.005c-.225.087-.565.192-1.187.219-.675.03-.878.038-2.586.038s-1.913-.008-2.586-.038c-.625-.027-.962-.132-1.188-.22a1.986 1.986 0 0 1-.735-.477 1.997 1.997 0 0 1-.473-.721l-.005-.014c-.088-.225-.192-.565-.22-1.187-.03-.675-.038-.878-.038-2.586s.008-1.913.038-2.586c.028-.626.133-.963.22-1.188.102-.278.266-.53.48-.735.208-.212.458-.375.736-.478.224-.088.565-.192 1.187-.22.675-.03.878-.038 2.586-.038 1.71 0 1.912.008 2.586.038.625.028.962.133 1.188.22.277.102.53.266.734.478.213.208.376.458.478.736.088.224.193.565.221 1.187.03.675.037.878.037 2.586s-.007 1.907-.037 2.582z"
                style="fill:var(--color2, #f4f4fd)" />
            <path fill="#f4f4fd"
                d="M16.024 12.713a3.29 3.29 0 0 0-.003 6.576h.004a3.29 3.29 0 0 0 .004-6.576h-.004zm0 5.421a2.134 2.134 0 0 1 0-4.268 2.134 2.134 0 0 1 0 4.268zm4.186-5.551a.768.768 0 0 1-1.536 0 .768.768 0 0 1 1.536 0z"
                style="fill:var(--color2, #f4f4fd)" />
        </symbol>
    </defs>
</svg>